<?xml version="1.0" encoding="utf-8"?>
<!-- Generator: Adobe Illustrator 16.0.0, SVG Export Plug-In . SVG Version: 6.00 Build 0)  -->
<!DOCTYPE svg PUBLIC "-//W3C//DTD SVG 1.1//EN" "http://www.w3.org/Graphics/SVG/1.1/DTD/svg11.dtd" [
	<!ENTITY ns_extend "http://ns.adobe.com/Extensibility/1.0/">
	<!ENTITY ns_ai "http://ns.adobe.com/AdobeIllustrator/10.0/">
	<!ENTITY ns_graphs "http://ns.adobe.com/Graphs/1.0/">
	<!ENTITY ns_vars "http://ns.adobe.com/Variables/1.0/">
	<!ENTITY ns_imrep "http://ns.adobe.com/ImageReplacement/1.0/">
	<!ENTITY ns_sfw "http://ns.adobe.com/SaveForWeb/1.0/">
	<!ENTITY ns_custom "http://ns.adobe.com/GenericCustomNamespace/1.0/">
	<!ENTITY ns_adobe_xpath "http://ns.adobe.com/XPath/1.0/">
]>
<svg version="1.1" id="Capa_1" xmlns:x="&ns_extend;" xmlns:i="&ns_ai;" xmlns:graph="&ns_graphs;"
	 xmlns="http://www.w3.org/2000/svg" xmlns:xlink="http://www.w3.org/1999/xlink" x="0px" y="0px" width="431.447px"
	 height="28.99px" viewBox="0 0 431.447 28.99" enable-background="new 0 0 431.447 28.99" xml:space="preserve">
<metadata>
	<sfw  xmlns="&ns_sfw;">
		<slices></slices>
		<sliceSourceBounds  width="429.06" height="22.632" y="-292.822" x="264.36" bottomLeftOrigin="true"></sliceSourceBounds>
	</sfw>
</metadata>
<g>
	<path fill="#FFFFFF" d="M14.688,9.284v10.873c0,4.512-2.304,6.768-6.912,6.768c-1.232,0-2.4-0.156-3.504-0.469
		c-1.104-0.312-2.016-0.764-2.736-1.355l1.344-2.256c0.56,0.464,1.268,0.836,2.124,1.115c0.856,0.28,1.724,0.42,2.604,0.42
		c1.408,0,2.44-0.319,3.096-0.959c0.656-0.641,0.984-1.616,0.984-2.928V19.82c-0.512,0.56-1.136,0.983-1.872,1.271
		c-0.736,0.287-1.544,0.432-2.424,0.432c-1.216,0-2.316-0.26-3.3-0.779c-0.984-0.521-1.76-1.252-2.328-2.196
		c-0.568-0.944-0.852-2.024-0.852-3.24s0.284-2.292,0.852-3.228c0.567-0.936,1.344-1.66,2.328-2.172
		c0.984-0.512,2.084-0.768,3.3-0.768c0.928,0,1.772,0.152,2.532,0.456c0.76,0.304,1.396,0.768,1.908,1.392V9.284H14.688z
		 M10.644,17.959c0.728-0.68,1.092-1.563,1.092-2.651c0-1.072-0.364-1.944-1.092-2.616c-0.729-0.672-1.66-1.008-2.796-1.008
		c-1.152,0-2.092,0.336-2.82,1.008c-0.728,0.672-1.092,1.544-1.092,2.616c0,1.089,0.364,1.972,1.092,2.651
		c0.728,0.681,1.668,1.021,2.82,1.021C8.984,18.979,9.916,18.64,10.644,17.959z"/>
	<path fill="#FFFFFF" d="M20.88,21.428c-1.041-0.561-1.852-1.34-2.436-2.34c-0.584-1-0.876-2.133-0.876-3.396
		s0.292-2.392,0.876-3.384c0.584-0.992,1.396-1.768,2.436-2.328c1.04-0.56,2.208-0.84,3.504-0.84c1.312,0,2.488,0.28,3.528,0.84
		c1.04,0.561,1.852,1.336,2.436,2.328c0.584,0.992,0.876,2.12,0.876,3.384s-0.292,2.396-0.876,3.396s-1.396,1.779-2.436,2.34
		s-2.216,0.84-3.528,0.84C23.088,22.268,21.919,21.988,20.88,21.428z M27.12,18.596c0.72-0.736,1.08-1.704,1.08-2.904
		c0-1.2-0.36-2.167-1.08-2.904c-0.72-0.736-1.632-1.104-2.736-1.104s-2.012,0.368-2.724,1.104c-0.712,0.736-1.068,1.704-1.068,2.904
		c0,1.2,0.356,2.168,1.068,2.904s1.62,1.104,2.724,1.104S26.4,19.332,27.12,18.596z"/>
	<path fill="#FFFFFF" d="M44.555,9.956c0.984,0.544,1.756,1.312,2.316,2.304s0.84,2.136,0.84,3.432c0,1.297-0.28,2.444-0.84,3.444
		s-1.332,1.772-2.316,2.315c-0.984,0.545-2.1,0.816-3.348,0.816c-0.88,0-1.684-0.152-2.412-0.456
		c-0.729-0.304-1.34-0.76-1.836-1.368V22.1h-2.856V4.292h3v6.552c0.512-0.56,1.116-0.984,1.812-1.272
		c0.696-0.288,1.46-0.432,2.292-0.432C42.455,9.14,43.571,9.412,44.555,9.956z M43.595,18.596c0.712-0.736,1.068-1.704,1.068-2.904
		c0-1.2-0.356-2.167-1.068-2.904c-0.712-0.736-1.62-1.104-2.724-1.104c-0.72,0-1.368,0.164-1.944,0.492s-1.032,0.796-1.368,1.404
		c-0.336,0.608-0.504,1.312-0.504,2.112c0,0.801,0.168,1.504,0.504,2.112s0.792,1.076,1.368,1.403
		c0.576,0.328,1.224,0.492,1.944,0.492C41.975,19.699,42.883,19.332,43.595,18.596z"/>
	<path fill="#FFFFFF" d="M49.896,21.703c-0.384-0.375-0.576-0.852-0.576-1.428c0-0.592,0.188-1.071,0.564-1.439
		s0.844-0.553,1.404-0.553c0.56,0,1.028,0.185,1.404,0.553c0.375,0.368,0.564,0.848,0.564,1.439c0,0.576-0.192,1.053-0.576,1.428
		c-0.384,0.377-0.848,0.564-1.392,0.564C50.743,22.268,50.279,22.08,49.896,21.703z"/>
	<path fill="#FFFFFF" d="M66.635,9.956c0.984,0.544,1.756,1.312,2.316,2.304s0.84,2.136,0.84,3.432c0,1.297-0.28,2.444-0.84,3.444
		s-1.332,1.772-2.316,2.315c-0.984,0.545-2.1,0.816-3.348,0.816c-1.728,0-3.096-0.576-4.104-1.729v6.217h-3V9.284h2.856v1.68
		c0.496-0.607,1.107-1.063,1.836-1.368c0.728-0.304,1.532-0.456,2.412-0.456C64.535,9.14,65.651,9.412,66.635,9.956z M65.675,18.596
		c0.712-0.736,1.068-1.704,1.068-2.904c0-1.2-0.356-2.167-1.068-2.904c-0.712-0.736-1.62-1.104-2.724-1.104
		c-0.72,0-1.368,0.164-1.944,0.492s-1.032,0.796-1.368,1.404c-0.336,0.608-0.504,1.312-0.504,2.112c0,0.801,0.168,1.504,0.504,2.112
		s0.792,1.076,1.368,1.403c0.576,0.328,1.224,0.492,1.944,0.492C64.055,19.699,64.963,19.332,65.675,18.596z"/>
	<path fill="#FFFFFF" d="M84.646,16.651H74.591c0.176,0.944,0.636,1.692,1.38,2.244s1.668,0.828,2.772,0.828
		c1.408,0,2.568-0.464,3.48-1.392l1.608,1.848c-0.576,0.688-1.304,1.208-2.184,1.561c-0.88,0.352-1.872,0.527-2.976,0.527
		c-1.408,0-2.648-0.279-3.72-0.84c-1.072-0.561-1.9-1.34-2.484-2.34c-0.584-1-0.876-2.133-0.876-3.396
		c0-1.248,0.284-2.372,0.852-3.372c0.567-1,1.356-1.78,2.364-2.34c1.008-0.56,2.144-0.84,3.408-0.84
		c1.248,0,2.364,0.276,3.348,0.828c0.984,0.552,1.752,1.328,2.304,2.328c0.552,1,0.828,2.156,0.828,3.468
		C84.695,15.972,84.679,16.268,84.646,16.651z M75.779,12.392c-0.664,0.568-1.068,1.324-1.212,2.268h7.272
		c-0.128-0.928-0.521-1.68-1.176-2.256c-0.656-0.576-1.472-0.864-2.448-0.864C77.255,11.54,76.442,11.824,75.779,12.392z"/>
	<path fill="#FFFFFF" d="M102.511,10.04c0.81,0.36,1.431,0.876,1.863,1.548c0.432,0.672,0.648,1.47,0.648,2.394
		c0,0.912-0.216,1.708-0.648,2.386c-0.432,0.678-1.053,1.196-1.863,1.557c-0.81,0.359-1.761,0.539-2.853,0.539h-2.844V22.1h-2.34
		V9.5h5.184C100.75,9.5,101.701,9.68,102.511,10.04z M101.872,15.836c0.528-0.432,0.792-1.05,0.792-1.854
		c0-0.804-0.264-1.422-0.792-1.854c-0.528-0.432-1.302-0.648-2.322-0.648h-2.736v5.004h2.736
		C100.57,16.483,101.344,16.268,101.872,15.836z"/>
	<path fill="#FFFFFF" d="M112.618,12.379v2.142c-0.192-0.036-0.366-0.054-0.522-0.054c-0.876,0-1.56,0.255-2.052,0.765
		s-0.738,1.245-0.738,2.205V22.1h-2.25v-9.612h2.142v1.404C109.846,12.884,110.986,12.379,112.618,12.379z"/>
	<path fill="#FFFFFF" d="M123.437,18.014h-7.542c0.132,0.708,0.477,1.27,1.035,1.684c0.558,0.414,1.251,0.62,2.079,0.62
		c1.056,0,1.926-0.348,2.61-1.044l1.206,1.387c-0.432,0.516-0.978,0.906-1.638,1.17c-0.66,0.264-1.404,0.396-2.232,0.396
		c-1.056,0-1.986-0.21-2.79-0.63c-0.804-0.42-1.425-1.005-1.863-1.755s-0.657-1.599-0.657-2.548c0-0.936,0.213-1.778,0.639-2.528
		c0.426-0.75,1.017-1.335,1.773-1.755c0.756-0.42,1.608-0.63,2.556-0.63c0.936,0,1.773,0.207,2.511,0.621
		c0.738,0.414,1.314,0.996,1.728,1.746c0.414,0.75,0.621,1.617,0.621,2.601C123.473,17.504,123.46,17.726,123.437,18.014z
		 M116.786,14.819c-0.498,0.425-0.801,0.993-0.909,1.701h5.454c-0.096-0.695-0.39-1.26-0.882-1.692s-1.104-0.648-1.836-0.648
		C117.893,14.18,117.283,14.393,116.786,14.819z"/>
	<path fill="#FFFFFF" d="M126.316,21.92c-0.744-0.204-1.338-0.462-1.782-0.774l0.864-1.71c0.432,0.288,0.951,0.52,1.557,0.693
		s1.203,0.261,1.791,0.261c1.344,0,2.016-0.354,2.016-1.062c0-0.336-0.171-0.57-0.513-0.703c-0.342-0.131-0.891-0.258-1.647-0.377
		c-0.792-0.12-1.437-0.258-1.935-0.414c-0.499-0.156-0.93-0.43-1.296-0.819s-0.549-0.933-0.549-1.629
		c0-0.912,0.381-1.641,1.143-2.187c0.762-0.546,1.791-0.819,3.087-0.819c0.66,0,1.32,0.075,1.98,0.225
		c0.66,0.15,1.2,0.351,1.62,0.603l-0.864,1.71c-0.816-0.479-1.734-0.72-2.754-0.72c-0.66,0-1.161,0.099-1.503,0.297
		c-0.342,0.198-0.513,0.459-0.513,0.783c0,0.36,0.183,0.615,0.549,0.766c0.366,0.15,0.933,0.291,1.701,0.423
		c0.768,0.12,1.398,0.258,1.89,0.413c0.492,0.156,0.915,0.421,1.269,0.793s0.531,0.9,0.531,1.584c0,0.9-0.39,1.619-1.17,2.16
		c-0.78,0.539-1.842,0.81-3.186,0.81C127.822,22.226,127.06,22.123,126.316,21.92z"/>
	<path fill="#FFFFFF" d="M135.01,10.517c-0.276-0.258-0.414-0.579-0.414-0.963c0-0.384,0.138-0.705,0.414-0.963
		c0.276-0.258,0.618-0.387,1.026-0.387s0.75,0.123,1.026,0.369c0.276,0.246,0.414,0.555,0.414,0.927
		c0,0.396-0.135,0.729-0.405,0.999s-0.615,0.405-1.035,0.405C135.628,10.904,135.286,10.775,135.01,10.517z M134.902,12.488h2.25
		V22.1h-2.25V12.488z"/>
	<path fill="#FFFFFF" d="M149.518,8.744V22.1h-2.16v-1.242c-0.372,0.457-0.831,0.799-1.377,1.026
		c-0.546,0.228-1.149,0.342-1.809,0.342c-0.924,0-1.755-0.204-2.493-0.612c-0.738-0.408-1.317-0.986-1.737-1.736
		s-0.63-1.611-0.63-2.584c0-0.971,0.21-1.829,0.63-2.573s0.999-1.32,1.737-1.728c0.738-0.408,1.569-0.612,2.493-0.612
		c0.636,0,1.218,0.108,1.746,0.324c0.528,0.216,0.978,0.54,1.35,0.972V8.744H149.518z M145.9,19.931
		c0.432-0.246,0.774-0.597,1.026-1.054c0.252-0.455,0.378-0.983,0.378-1.584c0-0.6-0.126-1.127-0.378-1.584
		c-0.252-0.455-0.594-0.806-1.026-1.052s-0.918-0.369-1.458-0.369s-1.026,0.123-1.458,0.369s-0.774,0.597-1.026,1.052
		c-0.252,0.457-0.378,0.984-0.378,1.584c0,0.601,0.126,1.129,0.378,1.584c0.252,0.457,0.594,0.808,1.026,1.054
		s0.918,0.369,1.458,0.369S145.468,20.177,145.9,19.931z"/>
	<path fill="#FFFFFF" d="M161.47,18.014h-7.542c0.132,0.708,0.477,1.27,1.035,1.684c0.558,0.414,1.251,0.62,2.079,0.62
		c1.056,0,1.926-0.348,2.61-1.044l1.206,1.387c-0.432,0.516-0.978,0.906-1.638,1.17c-0.66,0.264-1.404,0.396-2.232,0.396
		c-1.056,0-1.986-0.21-2.79-0.63c-0.804-0.42-1.425-1.005-1.863-1.755s-0.657-1.599-0.657-2.548c0-0.936,0.213-1.778,0.639-2.528
		c0.426-0.75,1.017-1.335,1.773-1.755c0.756-0.42,1.608-0.63,2.556-0.63c0.936,0,1.773,0.207,2.511,0.621
		c0.738,0.414,1.314,0.996,1.728,1.746c0.414,0.75,0.621,1.617,0.621,2.601C161.506,17.504,161.494,17.726,161.47,18.014z
		 M154.819,14.819c-0.498,0.425-0.801,0.993-0.909,1.701h5.454c-0.096-0.695-0.39-1.26-0.882-1.692s-1.104-0.648-1.836-0.648
		C155.926,14.18,155.316,14.393,154.819,14.819z"/>
	<path fill="#FFFFFF" d="M172.036,13.441c0.731,0.708,1.098,1.758,1.098,3.15V22.1h-2.25v-5.221c0-0.839-0.198-1.473-0.594-1.898
		s-0.96-0.639-1.692-0.639c-0.828,0-1.482,0.249-1.962,0.747c-0.48,0.499-0.72,1.215-0.72,2.152V22.1h-2.25v-9.612h2.142v1.242
		c0.372-0.444,0.84-0.78,1.404-1.008s1.2-0.342,1.908-0.342C170.332,12.379,171.303,12.734,172.036,13.441z"/>
	<path fill="#FFFFFF" d="M177.813,21.596c-0.792-0.42-1.41-1.005-1.854-1.755c-0.444-0.75-0.666-1.599-0.666-2.548
		c0-0.947,0.222-1.793,0.666-2.538c0.444-0.744,1.059-1.326,1.845-1.746s1.683-0.63,2.691-0.63c0.948,0,1.779,0.192,2.493,0.576
		c0.714,0.384,1.251,0.936,1.611,1.656l-1.728,1.007c-0.276-0.443-0.621-0.776-1.035-0.999c-0.414-0.222-0.867-0.333-1.359-0.333
		c-0.84,0-1.536,0.273-2.088,0.819c-0.552,0.546-0.828,1.275-0.828,2.187c0,0.912,0.272,1.642,0.819,2.188
		c0.546,0.547,1.245,0.819,2.097,0.819c0.492,0,0.945-0.11,1.359-0.333s0.759-0.555,1.035-0.999l1.728,1.008
		c-0.373,0.72-0.916,1.275-1.629,1.665c-0.714,0.391-1.539,0.585-2.475,0.585C179.499,22.226,178.605,22.016,177.813,21.596z"/>
	<path fill="#FFFFFF" d="M186.651,10.517c-0.276-0.258-0.414-0.579-0.414-0.963c0-0.384,0.138-0.705,0.414-0.963
		c0.276-0.258,0.618-0.387,1.026-0.387s0.75,0.123,1.026,0.369c0.276,0.246,0.414,0.555,0.414,0.927
		c0,0.396-0.135,0.729-0.405,0.999s-0.615,0.405-1.035,0.405C187.27,10.904,186.927,10.775,186.651,10.517z M186.543,12.488h2.25
		V22.1h-2.25V12.488z"/>
	<path fill="#FFFFFF" d="M198.666,13.396c0.75,0.678,1.125,1.701,1.125,3.069V22.1h-2.124v-1.17
		c-0.276,0.42-0.669,0.741-1.179,0.963c-0.51,0.223-1.125,0.333-1.845,0.333s-1.35-0.123-1.89-0.369
		c-0.54-0.245-0.957-0.588-1.251-1.026c-0.294-0.438-0.441-0.933-0.441-1.484c0-0.864,0.321-1.557,0.963-2.079
		s1.653-0.783,3.033-0.783h2.484V16.34c0-0.672-0.201-1.188-0.603-1.548c-0.402-0.36-0.999-0.54-1.791-0.54
		c-0.54,0-1.071,0.084-1.593,0.252c-0.522,0.168-0.963,0.402-1.323,0.702l-0.882-1.638c0.504-0.384,1.11-0.678,1.818-0.882
		c0.708-0.204,1.458-0.306,2.25-0.306C196.833,12.379,197.916,12.719,198.666,13.396z M196.614,20.201
		c0.438-0.258,0.747-0.627,0.927-1.107v-1.116h-2.322c-1.296,0-1.944,0.427-1.944,1.278c0,0.408,0.162,0.732,0.486,0.972
		c0.324,0.24,0.774,0.36,1.35,0.36C195.675,20.588,196.176,20.459,196.614,20.201z"/>
	<path fill="#FFFFFF" d="M217.053,8.744V22.1h-2.16v-1.242c-0.372,0.457-0.831,0.799-1.377,1.026
		c-0.546,0.228-1.149,0.342-1.809,0.342c-0.924,0-1.755-0.204-2.493-0.612c-0.738-0.408-1.317-0.986-1.737-1.736
		s-0.63-1.611-0.63-2.584c0-0.971,0.21-1.829,0.63-2.573s0.999-1.32,1.737-1.728c0.738-0.408,1.569-0.612,2.493-0.612
		c0.636,0,1.218,0.108,1.746,0.324c0.528,0.216,0.978,0.54,1.35,0.972V8.744H217.053z M213.435,19.931
		c0.432-0.246,0.774-0.597,1.026-1.054c0.252-0.455,0.378-0.983,0.378-1.584c0-0.6-0.126-1.127-0.378-1.584
		c-0.252-0.455-0.594-0.806-1.026-1.052s-0.918-0.369-1.458-0.369s-1.026,0.123-1.458,0.369s-0.774,0.597-1.026,1.052
		c-0.252,0.457-0.378,0.984-0.378,1.584c0,0.601,0.126,1.129,0.378,1.584c0.252,0.457,0.594,0.808,1.026,1.054
		s0.918,0.369,1.458,0.369S213.002,20.177,213.435,19.931z"/>
	<path fill="#FFFFFF" d="M229.005,18.014h-7.542c0.132,0.708,0.478,1.27,1.035,1.684s1.251,0.62,2.079,0.62
		c1.056,0,1.926-0.348,2.609-1.044l1.206,1.387c-0.432,0.516-0.978,0.906-1.638,1.17s-1.404,0.396-2.232,0.396
		c-1.056,0-1.986-0.21-2.789-0.63c-0.805-0.42-1.426-1.005-1.863-1.755c-0.438-0.75-0.657-1.599-0.657-2.548
		c0-0.936,0.213-1.778,0.64-2.528c0.426-0.75,1.016-1.335,1.772-1.755c0.756-0.42,1.608-0.63,2.556-0.63
		c0.936,0,1.773,0.207,2.512,0.621c0.737,0.414,1.313,0.996,1.728,1.746c0.414,0.75,0.621,1.617,0.621,2.601
		C229.041,17.504,229.028,17.726,229.005,18.014z M222.354,14.819c-0.498,0.425-0.802,0.993-0.91,1.701h5.455
		c-0.097-0.695-0.391-1.26-0.883-1.692s-1.104-0.648-1.836-0.648C223.461,14.18,222.852,14.393,222.354,14.819z"/>
	<path fill="#FFFFFF" d="M236.169,8.744h2.249V22.1h-2.249V8.744z"/>
	<path fill="#FFFFFF" d="M248.292,13.396c0.749,0.678,1.125,1.701,1.125,3.069V22.1h-2.124v-1.17c-0.276,0.42-0.67,0.741-1.18,0.963
		c-0.51,0.223-1.125,0.333-1.845,0.333s-1.35-0.123-1.89-0.369c-0.54-0.245-0.957-0.588-1.251-1.026
		c-0.295-0.438-0.441-0.933-0.441-1.484c0-0.864,0.321-1.557,0.963-2.079s1.653-0.783,3.033-0.783h2.484V16.34
		c0-0.672-0.201-1.188-0.604-1.548s-0.999-0.54-1.791-0.54c-0.54,0-1.071,0.084-1.593,0.252c-0.522,0.168-0.963,0.402-1.323,0.702
		l-0.882-1.638c0.504-0.384,1.109-0.678,1.818-0.882c0.707-0.204,1.458-0.306,2.25-0.306
		C246.458,12.379,247.541,12.719,248.292,13.396z M246.239,20.201c0.438-0.258,0.747-0.627,0.928-1.107v-1.116h-2.322
		c-1.296,0-1.944,0.427-1.944,1.278c0,0.408,0.162,0.732,0.486,0.972c0.324,0.24,0.773,0.36,1.35,0.36
		C245.301,20.588,245.802,20.459,246.239,20.201z"/>
	<path fill="#FFFFFF" d="M265.724,22.1l-2.573-3.689c-0.108,0.012-0.271,0.018-0.486,0.018h-2.844V22.1h-2.34V9.5h5.184
		c1.092,0,2.043,0.18,2.853,0.54c0.811,0.36,1.432,0.876,1.863,1.548c0.433,0.672,0.648,1.47,0.648,2.394
		c0,0.948-0.231,1.765-0.693,2.448s-1.125,1.194-1.989,1.529l2.898,4.141H265.724z M264.878,12.127
		c-0.528-0.432-1.302-0.648-2.322-0.648h-2.735v5.022h2.735c1.021,0,1.794-0.219,2.322-0.657s0.792-1.059,0.792-1.863
		C265.67,13.178,265.406,12.56,264.878,12.127z"/>
	<path fill="#FFFFFF" d="M279.421,18.014h-7.542c0.132,0.708,0.478,1.27,1.035,1.684c0.559,0.414,1.251,0.62,2.079,0.62
		c1.056,0,1.926-0.348,2.61-1.044l1.206,1.387c-0.433,0.516-0.979,0.906-1.639,1.17s-1.403,0.396-2.231,0.396
		c-1.057,0-1.986-0.21-2.79-0.63s-1.425-1.005-1.863-1.755s-0.657-1.599-0.657-2.548c0-0.936,0.213-1.778,0.64-2.528
		c0.426-0.75,1.017-1.335,1.772-1.755s1.608-0.63,2.557-0.63c0.936,0,1.772,0.207,2.511,0.621s1.313,0.996,1.728,1.746
		c0.414,0.75,0.621,1.617,0.621,2.601C279.457,17.504,279.445,17.726,279.421,18.014z M272.771,14.819
		c-0.498,0.425-0.801,0.993-0.909,1.701h5.454c-0.097-0.695-0.391-1.26-0.882-1.692c-0.492-0.432-1.104-0.648-1.836-0.648
		C273.877,14.18,273.269,14.393,272.771,14.819z"/>
	<path fill="#FFFFFF" d="M289.457,12.992c0.737,0.408,1.316,0.984,1.736,1.728s0.63,1.603,0.63,2.573c0,0.973-0.21,1.834-0.63,2.584
		s-0.999,1.328-1.736,1.736c-0.738,0.408-1.575,0.612-2.512,0.612c-1.296,0-2.321-0.433-3.078-1.296v4.662h-2.25V12.488h2.143v1.26
		c0.372-0.456,0.831-0.798,1.377-1.026s1.148-0.342,1.809-0.342C287.882,12.379,288.719,12.584,289.457,12.992z M288.736,19.472
		c0.534-0.552,0.802-1.278,0.802-2.179c0-0.899-0.268-1.625-0.802-2.178c-0.534-0.551-1.215-0.828-2.043-0.828
		c-0.54,0-1.025,0.123-1.458,0.369c-0.432,0.246-0.773,0.597-1.025,1.052c-0.252,0.457-0.378,0.984-0.378,1.584
		c0,0.601,0.126,1.129,0.378,1.584c0.252,0.457,0.594,0.808,1.025,1.054c0.433,0.246,0.918,0.369,1.458,0.369
		C287.521,20.3,288.202,20.023,288.736,19.472z"/>
	<path fill="#FFFFFF" d="M303.271,12.488V22.1h-2.143v-1.225c-0.359,0.433-0.81,0.766-1.35,1c-0.54,0.233-1.122,0.351-1.746,0.351
		c-1.284,0-2.295-0.356-3.033-1.071c-0.737-0.713-1.106-1.772-1.106-3.177v-5.49h2.25v5.184c0,0.863,0.194,1.509,0.585,1.935
		c0.39,0.427,0.944,0.64,1.665,0.64c0.804,0,1.442-0.25,1.917-0.748c0.474-0.497,0.711-1.215,0.711-2.15v-4.86H303.271z
		 M299.491,8.708h2.646l-3.133,2.466h-1.943L299.491,8.708z"/>
	<path fill="#FFFFFF" d="M314.063,12.992c0.737,0.408,1.316,0.984,1.736,1.728s0.63,1.603,0.63,2.573c0,0.973-0.21,1.834-0.63,2.584
		s-0.999,1.328-1.736,1.736c-0.738,0.408-1.575,0.612-2.512,0.612c-0.66,0-1.263-0.114-1.809-0.342s-1.005-0.569-1.377-1.026V22.1
		h-2.143V8.744h2.25v4.914c0.385-0.42,0.838-0.738,1.359-0.954c0.522-0.216,1.095-0.324,1.719-0.324
		C312.487,12.379,313.324,12.584,314.063,12.992z M313.342,19.472c0.534-0.552,0.802-1.278,0.802-2.179
		c0-0.899-0.268-1.625-0.802-2.178c-0.534-0.551-1.215-0.828-2.043-0.828c-0.54,0-1.025,0.123-1.458,0.369
		c-0.432,0.246-0.773,0.597-1.025,1.052c-0.252,0.457-0.378,0.984-0.378,1.584c0,0.601,0.126,1.129,0.378,1.584
		c0.252,0.457,0.594,0.808,1.025,1.054c0.433,0.246,0.918,0.369,1.458,0.369C312.127,20.3,312.808,20.023,313.342,19.472z"/>
	<path fill="#FFFFFF" d="M318.57,8.744h2.25V22.1h-2.25V8.744z"/>
	<path fill="#FFFFFF" d="M323.881,10.517c-0.276-0.258-0.414-0.579-0.414-0.963c0-0.384,0.138-0.705,0.414-0.963
		c0.276-0.258,0.618-0.387,1.026-0.387c0.407,0,0.749,0.123,1.025,0.369s0.414,0.555,0.414,0.927c0,0.396-0.135,0.729-0.405,0.999
		c-0.27,0.27-0.614,0.405-1.034,0.405C324.499,10.904,324.157,10.775,323.881,10.517z M323.772,12.488h2.25V22.1h-2.25V12.488z"/>
	<path fill="#FFFFFF" d="M330.702,21.596c-0.792-0.42-1.41-1.005-1.854-1.755c-0.443-0.75-0.666-1.599-0.666-2.548
		c0-0.947,0.223-1.793,0.666-2.538c0.444-0.744,1.06-1.326,1.846-1.746c0.785-0.42,1.683-0.63,2.69-0.63
		c0.948,0,1.779,0.192,2.493,0.576c0.714,0.384,1.251,0.936,1.611,1.656l-1.729,1.007c-0.276-0.443-0.621-0.776-1.035-0.999
		c-0.413-0.222-0.866-0.333-1.358-0.333c-0.84,0-1.536,0.273-2.088,0.819c-0.553,0.546-0.828,1.275-0.828,2.187
		c0,0.912,0.272,1.642,0.819,2.188c0.546,0.547,1.244,0.819,2.097,0.819c0.492,0,0.945-0.11,1.358-0.333
		c0.414-0.223,0.759-0.555,1.035-0.999l1.729,1.008c-0.372,0.72-0.915,1.275-1.629,1.665c-0.715,0.391-1.539,0.585-2.476,0.585
		C332.388,22.226,331.494,22.016,330.702,21.596z"/>
	<path fill="#FFFFFF" d="M346.354,13.396c0.749,0.678,1.125,1.701,1.125,3.069V22.1h-2.124v-1.17c-0.276,0.42-0.67,0.741-1.18,0.963
		c-0.51,0.223-1.125,0.333-1.845,0.333s-1.35-0.123-1.89-0.369c-0.54-0.245-0.957-0.588-1.251-1.026
		c-0.295-0.438-0.441-0.933-0.441-1.484c0-0.864,0.321-1.557,0.963-2.079s1.653-0.783,3.033-0.783h2.484V16.34
		c0-0.672-0.201-1.188-0.604-1.548s-0.999-0.54-1.791-0.54c-0.54,0-1.071,0.084-1.593,0.252c-0.522,0.168-0.963,0.402-1.323,0.702
		l-0.882-1.638c0.504-0.384,1.109-0.678,1.818-0.882c0.707-0.204,1.458-0.306,2.25-0.306
		C344.52,12.379,345.603,12.719,346.354,13.396z M344.301,20.201c0.438-0.258,0.747-0.627,0.928-1.107v-1.116h-2.322
		c-1.296,0-1.944,0.427-1.944,1.278c0,0.408,0.162,0.732,0.486,0.972c0.324,0.24,0.773,0.36,1.35,0.36
		C343.362,20.588,343.863,20.459,344.301,20.201z"/>
	<path fill="#FFFFFF" d="M364.739,8.744V22.1h-2.159v-1.242c-0.373,0.457-0.832,0.799-1.378,1.026s-1.148,0.342-1.809,0.342
		c-0.924,0-1.755-0.204-2.493-0.612c-0.737-0.408-1.316-0.986-1.736-1.736c-0.421-0.75-0.631-1.611-0.631-2.584
		c0-0.971,0.21-1.829,0.631-2.573c0.42-0.744,0.999-1.32,1.736-1.728c0.738-0.408,1.569-0.612,2.493-0.612
		c0.636,0,1.218,0.108,1.746,0.324s0.978,0.54,1.35,0.972V8.744H364.739z M361.122,19.931c0.432-0.246,0.773-0.597,1.025-1.054
		c0.252-0.455,0.378-0.983,0.378-1.584c0-0.6-0.126-1.127-0.378-1.584c-0.252-0.455-0.594-0.806-1.025-1.052
		c-0.433-0.246-0.919-0.369-1.458-0.369c-0.54,0-1.026,0.123-1.458,0.369c-0.433,0.246-0.774,0.597-1.026,1.052
		c-0.252,0.457-0.378,0.984-0.378,1.584c0,0.601,0.126,1.129,0.378,1.584c0.252,0.457,0.594,0.808,1.026,1.054
		c0.432,0.246,0.918,0.369,1.458,0.369C360.203,20.3,360.689,20.177,361.122,19.931z"/>
	<path fill="#FFFFFF" d="M376.691,18.014h-7.542c0.132,0.708,0.478,1.27,1.035,1.684c0.559,0.414,1.251,0.62,2.079,0.62
		c1.056,0,1.926-0.348,2.61-1.044l1.206,1.387c-0.433,0.516-0.979,0.906-1.639,1.17s-1.403,0.396-2.231,0.396
		c-1.057,0-1.986-0.21-2.79-0.63s-1.425-1.005-1.863-1.755s-0.657-1.599-0.657-2.548c0-0.936,0.213-1.778,0.64-2.528
		c0.426-0.75,1.017-1.335,1.772-1.755s1.608-0.63,2.557-0.63c0.936,0,1.772,0.207,2.511,0.621s1.313,0.996,1.728,1.746
		c0.414,0.75,0.621,1.617,0.621,2.601C376.728,17.504,376.716,17.726,376.691,18.014z M370.041,14.819
		c-0.498,0.425-0.801,0.993-0.909,1.701h5.454c-0.097-0.695-0.391-1.26-0.882-1.692c-0.492-0.432-1.104-0.648-1.836-0.648
		C371.147,14.18,370.539,14.393,370.041,14.819z"/>
	<path fill="#FFFFFF" d="M378.888,8.744h2.25V22.1h-2.25V8.744z"/>
	<path fill="#FFFFFF" d="M397.31,10.04c0.811,0.36,1.432,0.876,1.863,1.548c0.433,0.672,0.648,1.47,0.648,2.394
		c0,0.912-0.216,1.708-0.648,2.386c-0.432,0.678-1.053,1.196-1.863,1.557c-0.81,0.359-1.761,0.539-2.853,0.539h-2.844V22.1h-2.34
		V9.5h5.184C395.549,9.5,396.5,9.68,397.31,10.04z M396.671,15.836c0.528-0.432,0.792-1.05,0.792-1.854
		c0-0.804-0.264-1.422-0.792-1.854c-0.528-0.432-1.302-0.648-2.322-0.648h-2.735v5.004h2.735
		C395.369,16.483,396.143,16.268,396.671,15.836z"/>
	<path fill="#FFFFFF" d="M410.909,18.014h-7.542c0.132,0.708,0.478,1.27,1.035,1.684c0.559,0.414,1.251,0.62,2.079,0.62
		c1.056,0,1.926-0.348,2.61-1.044l1.206,1.387c-0.433,0.516-0.979,0.906-1.639,1.17s-1.403,0.396-2.231,0.396
		c-1.057,0-1.986-0.21-2.79-0.63s-1.425-1.005-1.863-1.755s-0.657-1.599-0.657-2.548c0-0.936,0.213-1.778,0.64-2.528
		c0.426-0.75,1.017-1.335,1.772-1.755s1.608-0.63,2.557-0.63c0.936,0,1.772,0.207,2.511,0.621s1.313,0.996,1.728,1.746
		c0.414,0.75,0.621,1.617,0.621,2.601C410.945,17.504,410.934,17.726,410.909,18.014z M404.259,14.819
		c-0.498,0.425-0.801,0.993-0.909,1.701h5.454c-0.097-0.695-0.391-1.26-0.882-1.692c-0.492-0.432-1.104-0.648-1.836-0.648
		C405.365,14.18,404.757,14.393,404.259,14.819z"/>
	<path fill="#FFFFFF" d="M418.667,12.379v2.142c-0.192-0.036-0.366-0.054-0.522-0.054c-0.876,0-1.56,0.255-2.052,0.765
		s-0.738,1.245-0.738,2.205V22.1h-2.25v-9.612h2.143v1.404C415.895,12.884,417.035,12.379,418.667,12.379z"/>
	<path fill="#FFFFFF" d="M429.972,12.488V22.1h-2.143v-1.225c-0.359,0.433-0.81,0.766-1.35,1c-0.54,0.233-1.122,0.351-1.746,0.351
		c-1.284,0-2.295-0.356-3.033-1.071c-0.737-0.713-1.106-1.772-1.106-3.177v-5.49h2.25v5.184c0,0.863,0.194,1.509,0.585,1.935
		c0.39,0.427,0.944,0.64,1.665,0.64c0.804,0,1.442-0.25,1.917-0.748c0.474-0.497,0.711-1.215,0.711-2.15v-4.86H429.972z
		 M426.191,8.708h2.646l-3.133,2.466h-1.943L426.191,8.708z"/>
</g>
<line fill="#FFFFFF" stroke="#FFFFFF" stroke-miterlimit="10" x1="89.552" y1="5.438" x2="89.552" y2="26.434"/>
</svg>
